# xmcd
#
# Track frame offsets:
#	150
#	11192
#	23344
#	31697
#	53447
#	71179
#	94909
#	108076
#	143926
#	164665
#	192089
#	210423
#	231490
#	248807
#	267832
#
# Disc length: 3682 seconds
# Revision: 0
# Processed by: cddbd v1.5.2PL0 Copyright (c) Steve Scherf et al.
# Submitted via: dBpowerAMP V12.0
#
DISCID=c60e600f
DTITLE=Guy Bélanger - Crossroads
DYEAR=2010
DGENRE=Blues
TTITLE0=Where the Buffalo Sleeps
TTITLE1=Got the Blues
TTITLE2=Catch That Train
TTITLE3=Don't Try to Explain (Avec Kim Richardson)
TTITLE4=Essaouira
TTITLE5=Who's Been Talkin'
TTITLE6=Chass?-Crois?
TTITLE7=Crossroads
TTITLE8=Jack of Hearts
TTITLE9=Blue (Avec Eric Lapointe)
TTITLE10=Kamikaze
TTITLE11=Pleasin' You
TTITLE12=Coyote
TTITLE13=Sporting Life
TTITLE14=1-2-3... Harmo
EXTD=
EXTT0=
EXTT1=
EXTT2=
EXTT3=
EXTT4=
EXTT5=
EXTT6=
EXTT7=
EXTT8=
EXTT9=
EXTT10=
EXTT11=
EXTT12=
EXTT13=
EXTT14=
PLAYORDER=
